<svg aria-hidden="true" style="position: absolute; width: 0; height: 0; overflow: hidden;" version="1.1" xmlns="http://www.w3.org/2000/svg" xmlns:xlink="http://www.w3.org/1999/xlink">
<defs>
<symbol id="icon-history" viewBox="0 0 34 32">
<title>history</title>
<path d="M20 2c7.732 0 14 6.268 14 14s-6.268 14-14 14v-3c2.938 0 5.701-1.144 7.778-3.222s3.222-4.84 3.222-7.778c0-2.938-1.144-5.701-3.222-7.778s-4.84-3.222-7.778-3.222c-2.938 0-5.701 1.144-7.778 3.222-1.598 1.598-2.643 3.601-3.041 5.778h5.819l-7 8-7-8h5.143c0.971-6.784 6.804-12 13.857-12zM26 14v4h-8v-10h4v6z"></path>
</symbol>
</defs>
</svg>
